<?xml version="1.0" encoding="UTF-8"?>
<svg xmlns="http://www.w3.org/2000/svg" xmlns:xlink="http://www.w3.org/1999/xlink" viewBox="0 0 464.99 449.11">
  <defs>
    <style>
      .cls-1, .cls-2, .cls-3, .cls-4, .cls-5, .cls-6 {
        fill: none;
      }

      .cls-7 {
        filter: url(#drop-shadow-1);
      }

      .cls-8 {
        fill: #3aaeef;
      }

      .cls-9 {
        letter-spacing: 0em;
      }

      .cls-9, .cls-10, .cls-11 {
        font-size: 9.31px;
      }

      .cls-9, .cls-10, .cls-11, .cls-12, .cls-13, .cls-14, .cls-15 {
        font-family: Poppins-SemiBold, Poppins;
        font-weight: 600;
      }

      .cls-10 {
        letter-spacing: 0em;
      }

      .cls-11 {
        letter-spacing: 0em;
      }

      .cls-2 {
        stroke: #4138f2;
      }

      .cls-2, .cls-6 {
        stroke-width: 8px;
      }

      .cls-16 {
        opacity: .11;
      }

      .cls-16, .cls-17 {
        mix-blend-mode: multiply;
      }

      .cls-17 {
        opacity: .1;
      }

      .cls-3 {
        stroke: #e61f00;
        stroke-width: 2px;
      }

      .cls-18 {
        fill: #edeef4;
      }

      .cls-4 {
        stroke: #000;
      }

      .cls-4, .cls-5 {
        stroke-width: .45px;
      }

      .cls-19 {
        isolation: isolate;
      }

      .cls-20 {
        clip-path: url(#clippath-1);
      }

      .cls-21 {
        clip-path: url(#clippath-3);
      }

      .cls-22 {
        clip-path: url(#clippath-4);
      }

      .cls-23 {
        clip-path: url(#clippath-2);
      }

      .cls-24 {
        clip-path: url(#clippath-5);
      }

      .cls-5 {
        stroke: #c3c3c3;
      }

      .cls-12 {
        filter: url(#drop-shadow-3);
      }

      .cls-12, .cls-13, .cls-14, .cls-15 {
        font-size: 10px;
      }

      .cls-12, .cls-13, .cls-14, .cls-15, .cls-25 {
        fill: #fff;
      }

      .cls-13 {
        filter: url(#drop-shadow-2);
      }

      .cls-14 {
        filter: url(#drop-shadow-5);
      }

      .cls-15 {
        filter: url(#drop-shadow-4);
      }

      .cls-26 {
        fill: #8dd89e;
      }

      .cls-27 {
        fill: #f20f30;
      }

      .cls-28 {
        font-family: Poppins-Bold, Poppins;
        font-size: 11.22px;
        font-weight: 700;
      }

      .cls-29 {
        fill: #e61f00;
      }

      .cls-30 {
        fill: #4f4f4f;
        opacity: .77;
      }

      .cls-31 {
        mix-blend-mode: screen;
      }

      .cls-32 {
        fill: #f4f2f2;
      }

      .cls-33 {
        fill: #f40b48;
      }

      .cls-6 {
        stroke: #a0a4ff;
      }

      .cls-34 {
        clip-path: url(#clippath);
      }
    </style>
    <filter id="drop-shadow-1" x="314.42" y="277.95" width="84" height="44" filterUnits="userSpaceOnUse">
      <feOffset dx="4" dy="4"/>
      <feGaussianBlur result="blur" stdDeviation="3"/>
      <feFlood flood-color="#000" flood-opacity=".55"/>
      <feComposite in2="blur" operator="in"/>
      <feComposite in="SourceGraphic"/>
    </filter>
    <filter id="drop-shadow-2" filterUnits="userSpaceOnUse">
      <feOffset dx="1" dy="1"/>
      <feGaussianBlur result="blur-2" stdDeviation="3"/>
      <feFlood flood-color="#26680b" flood-opacity=".8"/>
      <feComposite in2="blur-2" operator="in"/>
      <feComposite in="SourceGraphic"/>
    </filter>
    <filter id="drop-shadow-3" filterUnits="userSpaceOnUse">
      <feOffset dx="1" dy="1"/>
      <feGaussianBlur result="blur-3" stdDeviation="3"/>
      <feFlood flood-color="#26680b" flood-opacity=".8"/>
      <feComposite in2="blur-3" operator="in"/>
      <feComposite in="SourceGraphic"/>
    </filter>
    <filter id="drop-shadow-4" filterUnits="userSpaceOnUse">
      <feOffset dx="1" dy="1"/>
      <feGaussianBlur result="blur-4" stdDeviation="3"/>
      <feFlood flood-color="#0d5e1c" flood-opacity=".8"/>
      <feComposite in2="blur-4" operator="in"/>
      <feComposite in="SourceGraphic"/>
    </filter>
    <clipPath id="clippath">
      <rect class="cls-1" x="237.3" y="379.33" width="17.03" height="52.2"/>
    </clipPath>
    <clipPath id="clippath-1">
      <rect class="cls-1" x="237.3" y="379.33" width="17.03" height="52.2"/>
    </clipPath>
    <clipPath id="clippath-2">
      <rect class="cls-1" x="237.3" y="379.33" width="17.03" height="52.2"/>
    </clipPath>
    <clipPath id="clippath-3">
      <rect class="cls-1" x="237.3" y="379.33" width="17.03" height="52.2"/>
    </clipPath>
    <clipPath id="clippath-4">
      <rect class="cls-1" x="237.3" y="379.33" width="17.03" height="52.2"/>
    </clipPath>
    <clipPath id="clippath-5">
      <rect class="cls-1" x="237.3" y="379.33" width="17.03" height="52.2"/>
    </clipPath>
    <filter id="drop-shadow-5" filterUnits="userSpaceOnUse">
      <feOffset dx="1" dy="1"/>
      <feGaussianBlur result="blur-5" stdDeviation="3"/>
      <feFlood flood-color="#0d5e1c" flood-opacity=".8"/>
      <feComposite in2="blur-5" operator="in"/>
      <feComposite in="SourceGraphic"/>
    </filter>
  </defs>
  <g class="cls-19">
    <g id="Layer_5" data-name="Layer 5">
      <rect class="cls-8" x="-16.42" y="-33.65" width="487.5" height="488.5"/>
      <polygon class="cls-26" points="132.98 449.22 121.79 421.68 132.12 387.26 161.38 369.19 219.04 363.17 253.46 358 299.93 370.05 358.45 397.59 347.26 345.95 343.82 308.09 360.17 277.97 389.43 235.8 398.89 237.52 382.54 280.55 370.49 304.65 367.05 321 373.08 348.54 367.91 364.89 368.77 379.52 407.5 383.82 471.43 421.68 471.43 -34.41 -16.76 -34.41 -16.76 458.69 129.54 458.69 132.98 449.22"/>
      <path class="cls-8" d="M247.37,375.62l5.03-28.93-6.92-19.5-9.04-13.16-27.95-3.21-39.74-3.76s-29.98-18.36-23.9-57.23,3.77-25.16,3.77-25.16l-18.24-58.49-32.08-93.08-15.72-40.25L52.4-5.51l37.74,42.45,33.96,100s37.74,72.33,32.7,101.89-5.66,54.72,21.38,58.49,75.47-10.69,75.47,29.56c11.95,33.96,31.45,58.49,31.45,58.49l-34.59-.63-3.14-9.12Z"/>
    </g>
    <g id="Layer_2" data-name="Layer 2">
      <line class="cls-6" x1="175.67" y1="44.18" x2="361.53" y2="71.6"/>
      <polyline class="cls-6" points="200.2 235.06 236.68 221.22 277.56 214.93 292.89 214.11 295.57 218.01"/>
      <path class="cls-2" d="M471.64,85.74l-92.19-5.46-17.92-8.69s-5.97-7.6-15.75,17.38-30.95,79.28-30.95,79.28h-11.4l-4.89,10.86-19.55,5.97,24.44,47.65,1.02,113.1"/>
      <path class="cls-2" d="M200.93-10.26l-38.08,93.43s-8.96,28.71-1.22,54.6,17.56,55.11,17.56,55.11l24.2,55.64,16.47,48.15s32.69-4.49,41.42,27.2,9.73,27.2,9.73,27.2l33.43-5.24,25.95-1.25,14.72,8.73,3.24-12.48"/>
      <line class="cls-5" x1="142.38" y1="191.84" x2="142.38" y2="191.11"/>
      <line class="cls-5" x1="203.94" y1="184.88" x2="203.79" y2="185.75"/>
      <g>
        <g>
          <polygon class="cls-33" points="342.35 327.65 335.79 331.92 337.88 324.61 331.98 319.85 339.62 319.85 342.34 312.76 345.1 319.85 352.88 319.85 346.64 324.61 349.09 332.04 342.35 327.65"/>
          <path class="cls-18" d="M342.34,313.46l.94,2.41,1.65,4.23h7.21l-2.35,1.79-3.44,2.63,1.39,4.21.89,2.71-2.39-1.55-3.89-2.53-3.89,2.53-2.24,1.46.74-2.57,1.22-4.25-3.28-2.64-2.2-1.78h7.1l1.63-4.23.93-2.41M342.34,312.07l-.46,1.21-.93,2.41-1.5,3.91h-8.17l1.1.89,2.2,1.78,3.02,2.44-1.13,3.94-.74,2.57-.37,1.29,1.12-.73,2.24-1.46,3.62-2.36,3.62,2.36,2.39,1.55,1.19.78-.45-1.35-.89-2.71-1.28-3.88,3.16-2.41,2.35-1.79,1.18-.9h-8.35l-1.52-3.91-.94-2.41-.47-1.2h0Z"/>
        </g>
        <text class="cls-28" transform="translate(351.67 328.86)"><tspan x="0" y="0">Dock F</tspan></text>
        <g class="cls-7">
          <polygon class="cls-25" points="359.89 290.46 356.55 287.73 348.03 288.34 345.14 292.75 345.44 294.72 360.8 292.9 359.89 290.46"/>
          <polygon class="cls-4" points="359.89 290.46 356.55 287.73 348.03 288.34 345.14 292.75 345.44 294.72 360.8 292.9 359.89 290.46"/>
          <polygon class="cls-25" points="367.19 292.44 372.06 297.46 335.25 301.41 335.4 296.09 333.43 296.25 334.64 294.27 362.63 290.16 367.19 292.44"/>
          <polygon class="cls-4" points="367.19 292.44 372.06 297.46 335.25 301.41 335.4 296.09 333.43 296.25 334.64 294.27 362.63 290.16 367.19 292.44"/>
          <polygon class="cls-25" points="358.83 287.43 344.22 288.95 343.62 287.88 351.07 287.27 348.64 284.23 350.16 283.62 354.42 286.66 358.83 287.43"/>
          <polygon class="cls-4" points="358.83 287.43 344.22 288.95 343.62 287.88 351.07 287.27 348.64 284.23 350.16 283.62 354.42 286.66 358.83 287.43"/>
          <path class="cls-25" d="M371.89,297.35l12.33-1.26s-7.45,11.25-11.1,12.17c-4.11.3-52.93-.91-52.93-.91l-.15-4.72,51.85-5.28Z"/>
          <path class="cls-4" d="M371.89,297.35l12.33-1.26s-7.45,11.25-11.1,12.17c-4.11.3-52.93-.91-52.93-.91l-.15-4.72,51.85-5.28Z"/>
          <polygon points="364.46 293.81 367.34 296.25 339.05 299.14 340.42 296.1 364.46 293.81"/>
          <polygon class="cls-4" points="364.46 293.81 367.34 296.25 339.05 299.14 340.42 296.1 364.46 293.81"/>
          <polygon points="335.1 296.86 337.69 296.7 336.47 299.59 335.41 299.74 335.1 296.86"/>
          <polygon class="cls-4" points="335.1 296.86 337.69 296.7 336.47 299.59 335.41 299.74 335.1 296.86"/>
          <polygon points="358.87 289.65 357.25 289.95 357.15 290.17 348.43 291.12 347.97 290.72 349.48 288.39 356.55 287.73 358.87 289.65"/>
          <polygon class="cls-4" points="358.87 289.65 357.25 289.95 357.15 290.17 348.43 291.12 347.97 290.72 349.48 288.39 356.55 287.73 358.87 289.65"/>
          <line class="cls-5" x1="381.39" y1="299.45" x2="320.27" y2="304.38"/>
          <polygon class="cls-5" points="382.55 295.25 320.85 301.48 320.85 300.32 382.7 294.1 382.55 295.25"/>
        </g>
      </g>
      <g>
        <rect class="cls-32" x="396.27" y="83.64" width="39.25" height="12.48" rx="4.32" ry="4.32"/>
        <text class="cls-11" transform="translate(402.5 93.29)"><tspan x="0" y="0">HWY 1</tspan></text>
      </g>
      <g>
        <rect class="cls-32" x="213.03" y="206.74" width="55.68" height="12.48" rx="4.32" ry="4.32"/>
        <text class="cls-10" transform="translate(216.85 216.38)"><tspan x="0" y="0">Broadway</tspan></text>
      </g>
      <g>
        <rect class="cls-32" x="178.62" y="14.22" width="60.75" height="12.48" rx="4.32" ry="4.32"/>
        <text class="cls-10" transform="translate(191.72 23.87)"><tspan x="0" y="0">HWY 17</tspan></text>
      </g>
      <g>
        <rect class="cls-32" x="151.67" y="153.45" width="60.75" height="12.48" rx="4.32" ry="4.32"/>
        <text class="cls-9" transform="translate(159.8 163.1)"><tspan x="0" y="0">Ocean St</tspan></text>
      </g>
      <g>
        <rect class="cls-32" x="292.82" y="353.77" width="71.65" height="12.48" rx="4.32" ry="4.32"/>
        <text class="cls-10" transform="translate(299.46 363.41)"><tspan x="0" y="0">Atlantic Ave</tspan></text>
      </g>
      <g>
        <rect class="cls-32" x="261.32" y="243.57" width="71.65" height="12.48" rx="4.32" ry="4.32"/>
        <text class="cls-10" transform="translate(263.25 253.22)"><tspan x="0" y="0">Seabright Ave</tspan></text>
      </g>
      <g>
        <rect class="cls-32" x="293.52" y="111.31" width="83.85" height="12.48" rx="4.32" ry="4.32"/>
        <text class="cls-11" transform="translate(300.82 120.96)"><tspan x="0" y="0">Morrissey Blvd</tspan></text>
      </g>
      <g>
        <rect class="cls-32" x="242.99" y="161.56" width="56.74" height="12.48" rx="4.32" ry="4.32"/>
        <text class="cls-10" transform="translate(251.68 171.21)"><tspan x="0" y="0">Water St</tspan></text>
      </g>
      <g>
        <rect class="cls-32" x="204.17" y="310.83" width="83.85" height="12.48" rx="4.32" ry="4.32"/>
        <text class="cls-10" transform="translate(219.03 320.47)"><tspan x="0" y="0">East Cliff Dr</tspan></text>
      </g>
      <g>
        <rect class="cls-32" x="289.52" y="181.68" width="63.92" height="12.48" rx="4.32" ry="4.32"/>
        <text class="cls-10" transform="translate(295.3 191.32)"><tspan x="0" y="0">Soquel Ave</tspan></text>
      </g>
      <g>
        <line class="cls-3" x1="157.44" y1="52.46" x2="166.9" y2="8.13"/>
        <path class="cls-29" d="M154.92,64.27c3.25-5.11,8.23-11.26,12.87-14.73l-10.02,1.38-8.58-5.35c2.81,5.07,4.86,12.71,5.73,18.7Z"/>
      </g>
      <g>
        <path class="cls-27" d="M119.44,15.88v1.36h-3.49v2.15h2.68v1.33h-2.68v3.54h-1.68v-8.38h5.17Z"/>
        <path class="cls-27" d="M123.16,17.81c.35-.2.75-.3,1.19-.3v1.76h-.44c-.53,0-.93.12-1.19.37-.27.25-.4.68-.4,1.3v3.31h-1.68v-6.65h1.68v1.03c.22-.35.5-.63.85-.83Z"/>
        <path class="cls-27" d="M126.7,23.94c-.51-.28-.91-.69-1.21-1.21-.29-.52-.44-1.12-.44-1.8s.15-1.28.45-1.8c.3-.52.71-.92,1.23-1.21.52-.28,1.1-.43,1.74-.43s1.22.14,1.74.43c.52.28.93.69,1.23,1.21.3.52.45,1.12.45,1.8s-.15,1.28-.46,1.8c-.31.52-.72.92-1.25,1.21-.52.28-1.11.43-1.76.43s-1.22-.14-1.73-.43ZM129.29,22.68c.27-.15.48-.37.64-.67.16-.3.24-.66.24-1.08,0-.63-.17-1.12-.5-1.46-.33-.34-.74-.51-1.22-.51s-.88.17-1.21.51c-.32.34-.49.83-.49,1.46s.16,1.12.47,1.46c.32.34.71.51,1.19.51.3,0,.59-.07.86-.22Z"/>
        <path class="cls-27" d="M143.37,18.26c.5.5.75,1.2.75,2.09v3.9h-1.68v-3.67c0-.52-.13-.92-.4-1.19-.26-.28-.62-.41-1.08-.41s-.82.14-1.09.41c-.27.28-.4.67-.4,1.19v3.67h-1.68v-3.67c0-.52-.13-.92-.4-1.19-.26-.28-.62-.41-1.08-.41s-.83.14-1.1.41c-.27.28-.4.67-.4,1.19v3.67h-1.68v-6.65h1.68v.8c.22-.28.49-.5.83-.66.34-.16.71-.24,1.12-.24.52,0,.98.11,1.39.33.41.22.72.53.95.94.22-.38.53-.69.94-.92.41-.23.86-.35,1.34-.35.82,0,1.47.25,1.97.75Z"/>
        <path class="cls-27" d="M103.97,38.44c-.47-.2-.84-.49-1.11-.86-.27-.38-.41-.82-.42-1.33h1.8c.02.34.15.62.37.82.22.2.52.3.91.3s.7-.09.92-.28.34-.43.34-.74c0-.25-.08-.45-.23-.61-.15-.16-.34-.29-.57-.38-.23-.09-.54-.19-.94-.31-.54-.16-.99-.32-1.33-.47-.34-.16-.63-.39-.88-.71s-.37-.74-.37-1.27c0-.5.12-.93.37-1.3.25-.37.6-.65,1.04-.85.45-.2.96-.29,1.54-.29.86,0,1.57.21,2.11.63.54.42.84,1.01.89,1.76h-1.85c-.02-.29-.14-.53-.37-.71s-.53-.28-.91-.28c-.33,0-.59.08-.79.25-.2.17-.29.41-.29.73,0,.22.07.41.22.56s.33.27.55.36c.22.09.53.2.93.32.54.16.99.32,1.33.48.34.16.64.4.89.72.25.32.37.74.37,1.26,0,.45-.12.86-.35,1.25-.23.38-.57.69-1.02.92s-.98.34-1.6.34-1.11-.1-1.58-.3Z"/>
        <path class="cls-27" d="M109.93,33.52c.27-.52.63-.92,1.09-1.2.46-.28.97-.42,1.54-.42.5,0,.93.1,1.3.3.37.2.67.45.89.76v-.95h1.69v6.65h-1.69v-.97c-.22.31-.51.57-.89.77-.38.2-.82.31-1.31.31-.56,0-1.07-.14-1.53-.43-.46-.29-.82-.69-1.09-1.22s-.4-1.13-.4-1.81.13-1.27.4-1.79ZM114.52,34.28c-.16-.29-.38-.52-.65-.67-.27-.16-.56-.23-.88-.23s-.6.08-.86.23c-.26.15-.48.37-.64.67-.16.29-.25.64-.25,1.04s.08.75.25,1.05c.16.3.38.53.65.69s.55.24.86.24.6-.08.88-.23c.27-.16.49-.38.65-.67.16-.29.24-.64.24-1.05s-.08-.76-.24-1.05Z"/>
        <path class="cls-27" d="M123.7,32.66c.49.5.73,1.2.73,2.09v3.9h-1.68v-3.67c0-.53-.13-.93-.4-1.22-.26-.28-.62-.43-1.08-.43s-.83.14-1.1.43c-.27.28-.4.69-.4,1.22v3.67h-1.68v-6.65h1.68v.83c.22-.29.51-.51.86-.68.35-.16.73-.25,1.15-.25.79,0,1.43.25,1.92.75Z"/>
        <path class="cls-27" d="M133.77,30.28v5.88c0,.82-.24,1.45-.71,1.9-.47.45-1.1.68-1.9.68s-1.45-.23-1.94-.7c-.49-.46-.74-1.11-.74-1.94h1.68c0,.36.09.64.26.84.16.2.4.3.71.3s.54-.1.7-.29c.16-.19.24-.46.24-.79v-5.88h1.69Z"/>
        <path class="cls-27" d="M136.95,38.34c-.51-.28-.91-.69-1.21-1.21-.29-.52-.44-1.12-.44-1.8s.15-1.28.45-1.8c.3-.52.71-.92,1.23-1.21.52-.28,1.1-.43,1.74-.43s1.22.14,1.74.43c.52.28.93.69,1.23,1.21.3.52.45,1.12.45,1.8s-.15,1.28-.46,1.8c-.31.52-.72.92-1.25,1.21-.52.28-1.11.43-1.76.43s-1.22-.14-1.73-.43ZM139.54,37.08c.27-.15.48-.37.64-.67.16-.3.24-.66.24-1.08,0-.63-.17-1.12-.5-1.46-.33-.34-.74-.51-1.22-.51s-.88.17-1.21.51c-.32.34-.49.83-.49,1.46s.16,1.12.47,1.46c.32.34.71.51,1.19.51.3,0,.59-.07.86-.22Z"/>
        <path class="cls-27" d="M144.46,38.47c-.43-.2-.77-.46-1.03-.8s-.39-.71-.41-1.12h1.69c.03.26.16.47.38.64.22.17.49.25.82.25s.57-.06.75-.19c.18-.13.27-.29.27-.49,0-.22-.11-.38-.33-.49-.22-.11-.57-.23-1.05-.35-.5-.12-.9-.24-1.22-.37-.32-.13-.59-.32-.82-.59-.23-.26-.34-.62-.34-1.07,0-.37.11-.7.32-1.01s.52-.54.91-.72c.4-.18.86-.26,1.4-.26.79,0,1.42.2,1.9.59s.73.93.78,1.6h-1.61c-.02-.26-.13-.47-.33-.63-.2-.16-.46-.23-.79-.23-.3,0-.54.06-.7.17-.16.11-.25.27-.25.47,0,.22.11.39.34.51.22.12.57.23,1.04.35.48.12.88.24,1.19.37s.58.33.81.59.35.62.35,1.06c0,.38-.11.73-.32,1.03-.21.3-.52.54-.91.71s-.86.26-1.39.26-1.03-.1-1.46-.29Z"/>
        <path class="cls-27" d="M156.06,35.84h-4.86c.04.48.21.86.5,1.13s.66.41,1.09.41c.62,0,1.07-.27,1.33-.8h1.81c-.19.64-.56,1.17-1.1,1.58s-1.21.62-2,.62c-.64,0-1.21-.14-1.72-.43-.51-.28-.9-.69-1.19-1.21-.28-.52-.43-1.12-.43-1.8s.14-1.29.42-1.81c.28-.52.67-.92,1.18-1.2.5-.28,1.08-.42,1.74-.42s1.2.14,1.7.41c.5.27.89.66,1.16,1.16.28.5.41,1.07.41,1.72,0,.24-.02.46-.05.65ZM154.36,34.71c0-.43-.16-.78-.47-1.04-.3-.26-.68-.39-1.12-.39-.42,0-.77.13-1.05.38-.28.25-.46.6-.52,1.05h3.16Z"/>
      </g>
      <text class="cls-13" transform="translate(373.63 271.13)"><tspan x="0" y="0">Santa Cruz </tspan><tspan x="-5.77" y="12">Yacht Harbor</tspan></text>
      <text class="cls-12" transform="translate(383.93 365.3)"><tspan x="0" y="0">The Crow’s </tspan><tspan x="16.41" y="12">Nest</tspan></text>
      <text class="cls-15" transform="translate(158.61 352.9)"><tspan x="0" y="0">The Boardwalk</tspan></text>
      <g>
        <line class="cls-3" x1="387.86" y1="62.51" x2="438.98" y2="63.01"/>
        <path class="cls-29" d="M375.79,62.38c5.66,2.16,12.67,5.83,17,9.68l-3.35-9.55,3.54-9.47c-4.41,3.76-11.49,7.29-17.19,9.34Z"/>
      </g>
      <g>
        <path class="cls-27" d="M405.28,29.98v1.36h-3.49v2.15h2.68v1.33h-2.68v3.54h-1.68v-8.38h5.17Z"/>
        <path class="cls-27" d="M408.99,31.91c.35-.2.75-.3,1.19-.3v1.76h-.44c-.53,0-.93.12-1.19.37-.27.25-.4.68-.4,1.3v3.31h-1.68v-6.65h1.68v1.03c.22-.35.5-.63.85-.83Z"/>
        <path class="cls-27" d="M412.54,38.03c-.51-.28-.91-.69-1.21-1.21-.29-.52-.44-1.12-.44-1.8s.15-1.28.45-1.8c.3-.52.71-.92,1.23-1.21.52-.28,1.1-.43,1.74-.43s1.22.14,1.74.43c.52.28.93.69,1.23,1.21.3.52.45,1.12.45,1.8s-.15,1.28-.46,1.8c-.31.52-.72.92-1.25,1.21-.52.28-1.11.43-1.76.43s-1.22-.14-1.73-.43ZM415.13,36.77c.27-.15.48-.37.64-.67.16-.3.24-.66.24-1.08,0-.63-.17-1.12-.5-1.46s-.74-.51-1.22-.51-.88.17-1.21.51-.49.83-.49,1.46.16,1.12.47,1.46c.32.34.71.51,1.19.51.3,0,.59-.07.86-.22Z"/>
        <path class="cls-27" d="M429.2,32.36c.5.5.75,1.2.75,2.09v3.9h-1.68v-3.67c0-.52-.13-.92-.4-1.19-.26-.28-.62-.41-1.08-.41s-.82.14-1.09.41c-.27.28-.4.67-.4,1.19v3.67h-1.68v-3.67c0-.52-.13-.92-.4-1.19-.26-.28-.62-.41-1.08-.41s-.83.14-1.1.41-.4.67-.4,1.19v3.67h-1.68v-6.65h1.68v.8c.22-.28.49-.5.83-.66.34-.16.71-.24,1.12-.24.52,0,.98.11,1.39.33s.72.53.95.94c.22-.38.53-.69.94-.92.41-.23.86-.35,1.34-.35.82,0,1.47.25,1.97.75Z"/>
        <path class="cls-27" d="M409.24,44.38v8.38h-1.68v-5.45l-2.24,5.45h-1.27l-2.26-5.45v5.45h-1.68v-8.38h1.91l2.66,6.23,2.66-6.23h1.9Z"/>
        <path class="cls-27" d="M412.12,52.43c-.51-.28-.91-.69-1.21-1.21-.29-.52-.44-1.12-.44-1.8s.15-1.28.45-1.8c.3-.52.71-.92,1.23-1.21.52-.28,1.1-.43,1.74-.43s1.22.14,1.74.43c.52.28.93.69,1.23,1.21.3.52.45,1.12.45,1.8s-.15,1.28-.46,1.8c-.31.52-.72.92-1.25,1.21-.52.28-1.11.43-1.76.43s-1.22-.14-1.73-.43ZM414.71,51.17c.27-.15.48-.37.64-.67.16-.3.24-.66.24-1.08,0-.63-.17-1.12-.5-1.46-.33-.34-.74-.51-1.22-.51s-.88.17-1.21.51c-.32.34-.49.83-.49,1.46s.16,1.12.47,1.46c.32.34.71.51,1.19.51.3,0,.59-.07.86-.22Z"/>
        <path class="cls-27" d="M424.16,46.76c.49.5.73,1.2.73,2.09v3.9h-1.68v-3.67c0-.53-.13-.93-.4-1.22-.26-.28-.62-.43-1.08-.43s-.83.14-1.1.43-.4.69-.4,1.22v3.67h-1.68v-6.65h1.68v.83c.22-.29.51-.51.86-.68s.73-.25,1.15-.25c.79,0,1.43.25,1.92.75Z"/>
        <path class="cls-27" d="M428.44,47.48v3.22c0,.22.05.39.16.49.11.1.29.15.55.15h.78v1.42h-1.06c-1.42,0-2.12-.69-2.12-2.06v-3.2h-.79v-1.38h.79v-1.64h1.69v1.64h1.49v1.38h-1.49Z"/>
        <path class="cls-27" d="M437.27,49.93h-4.86c.04.48.21.86.5,1.13.3.27.66.41,1.09.41.62,0,1.07-.27,1.33-.8h1.81c-.19.64-.56,1.17-1.1,1.58s-1.21.62-2,.62c-.64,0-1.21-.14-1.72-.43-.51-.28-.9-.69-1.19-1.21-.28-.52-.43-1.12-.43-1.8s.14-1.29.42-1.81c.28-.52.67-.92,1.18-1.2.5-.28,1.08-.42,1.74-.42s1.2.14,1.7.41c.5.27.89.66,1.16,1.16.28.5.41,1.07.41,1.72,0,.24-.02.46-.05.65ZM435.58,48.8c0-.43-.16-.78-.47-1.04-.3-.26-.68-.39-1.12-.39-.42,0-.77.13-1.05.38-.28.25-.46.6-.52,1.05h3.16Z"/>
        <path class="cls-27" d="M441.07,46.31c.35-.2.75-.3,1.19-.3v1.76h-.44c-.53,0-.93.12-1.19.37-.27.25-.4.68-.4,1.3v3.31h-1.68v-6.65h1.68v1.03c.22-.35.5-.63.85-.83Z"/>
        <path class="cls-27" d="M449.52,49.93h-4.86c.04.48.21.86.5,1.13.3.27.66.41,1.09.41.62,0,1.07-.27,1.33-.8h1.81c-.19.64-.56,1.17-1.1,1.58s-1.21.62-2,.62c-.64,0-1.21-.14-1.72-.43-.51-.28-.9-.69-1.19-1.21-.28-.52-.43-1.12-.43-1.8s.14-1.29.42-1.81c.28-.52.67-.92,1.18-1.2.5-.28,1.08-.42,1.74-.42s1.2.14,1.7.41c.5.27.89.66,1.16,1.16s.41,1.07.41,1.72c0,.24-.02.46-.05.65ZM447.83,48.8c0-.43-.16-.78-.47-1.04-.3-.26-.68-.39-1.12-.39-.42,0-.77.13-1.05.38s-.46.6-.52,1.05h3.16Z"/>
        <path class="cls-27" d="M457.16,46.1l-4.12,9.79h-1.79l1.44-3.31-2.66-6.48h1.88l1.72,4.64,1.74-4.64h1.79Z"/>
      </g>
      <g class="cls-16">
        <path d="M40.78,365.74c-.66.25-1.36.46-2.12.63s-1.5.28-2.23.34c-.73.06-1.42.06-2.06-.01l-1.54-5.23.37-.14,2.72,2.54c.57.54,1.14.95,1.72,1.23s1.17.44,1.75.46c.59.02,1.15-.08,1.68-.28.45-.17.81-.38,1.08-.63.27-.24.44-.52.52-.83.08-.31.05-.63-.08-.96-.16-.41-.42-.76-.79-1.05-.37-.29-.89-.54-1.56-.75-.67-.21-1.56-.4-2.65-.56-1.55-.3-2.79-.61-3.75-.92-.95-.31-1.68-.66-2.2-1.05-.51-.39-.88-.87-1.09-1.43s-.29-1.2-.2-1.82c.09-.62.33-1.23.73-1.81.4-.58.93-1.13,1.59-1.63.66-.5,1.46-.93,2.39-1.29.81-.31,1.59-.54,2.34-.69.75-.15,1.46-.23,2.12-.24.66-.01,1.24.05,1.73.17l.97,5.16-.37.14-1.46-1.58c-.78-.83-1.48-1.47-2.11-1.91-.63-.44-1.23-.7-1.8-.79s-1.13-.02-1.69.19-1.02.47-1.37.76c-.35.29-.58.61-.7.94-.11.34-.1.69.04,1.06s.44.71.88.99,1.09.53,1.94.76c.86.23,1.99.45,3.39.66,1.07.16,1.97.33,2.72.52.75.19,1.38.4,1.89.64.51.24.91.51,1.2.83.3.32.53.69.69,1.11.23.6.31,1.18.24,1.72-.07.55-.26,1.06-.56,1.54-.3.48-.69.92-1.15,1.32-.47.4-.98.76-1.53,1.07-.55.31-1.12.58-1.69.8Z"/>
        <path d="M50.08,349.67c.89-.34,1.68-.55,2.37-.63.69-.08,1.31-.02,1.86.17s1.02.51,1.42.95c.4.44.73,1.02,1.01,1.73l2.2,5.73c.05.14.12.24.2.3.08.06.18.07.3.02.11-.04.23-.13.37-.26s.28-.3.42-.49l.08.21c-.13.21-.3.41-.53.63s-.47.41-.74.58c-.27.17-.55.32-.84.43-.85.33-1.61.37-2.28.15-.67-.23-1.2-.84-1.58-1.84l-.1-.27-.06-.15-.07-.17-.21-.06c-.04.64-.14,1.24-.3,1.8-.16.56-.38,1.06-.66,1.51-.27.45-.59.84-.96,1.16-.36.32-.76.57-1.2.73-.52.2-1.02.28-1.51.25s-.92-.18-1.3-.43c-.38-.25-.66-.62-.85-1.1-.44-1.15-.15-2.29.89-3.42,1.03-1.13,2.73-2.15,5.08-3.05-.45-1.18-.87-2.07-1.25-2.67-.38-.6-.8-.96-1.27-1.08s-1.05-.04-1.75.23c-.38.15-.71.31-.99.5-.27.18-.48.36-.61.52-.13.16-.19.28-.15.37.03.07.14.11.35.14.21.02.56.03,1.05,0,.99-.04,1.6.25,1.84.85.2.52.12,1.01-.24,1.46-.36.45-.89.81-1.59,1.08s-1.31.35-1.87.25c-.56-.1-.95-.41-1.15-.95-.14-.36-.12-.77.06-1.25.18-.48.48-.96.91-1.44.43-.49.95-.95,1.58-1.38.63-.44,1.31-.8,2.07-1.09ZM53.2,354.36c-.89.34-1.55.78-1.99,1.32s-.7,1.1-.78,1.68c-.08.58-.03,1.11.15,1.59.11.29.25.51.41.66.16.15.33.24.51.28.18.03.37.01.58-.07s.41-.22.61-.42c.2-.2.39-.47.55-.8.16-.33.29-.73.39-1.19.1-.46.14-1,.13-1.6l-.55-1.44Z"/>
        <path d="M74.48,352.19l.08.21-5.95,2.29-.08-.21.87-.57-2.74-7.13c-.22-.57-.48-.97-.78-1.2-.3-.22-.6-.28-.9-.16-.25.09-.45.32-.6.68-.15.36-.27.76-.33,1.21-.07.45-.12.89-.14,1.32-.02.43-.04.76-.04.99l2.15,5.59,1.02-.16.08.21-5.91,2.27-.08-.21.99-.62-3.52-9.16-1.11.43-.09-.23,4.71-2.71,1.29,3.35.23.1c.03-.78.13-1.51.3-2.19.17-.68.45-1.26.83-1.76.38-.49.9-.87,1.56-1.12.6-.23,1.14-.33,1.61-.3.47.03.88.17,1.23.41.35.24.66.56.93.95.27.39.5.84.7,1.35l2.53,6.57,1.19-.22Z"/>
        <path d="M79.4,350.89c-1.07.41-1.94.41-2.63,0-.68-.41-1.25-1.21-1.71-2.38l-2.55-6.63-1.31.51-.08-.21,1.24-.71,2.24-4.73.37-.14,1.2,3.12,2.14-.31.08.21-1.97.76,3.06,7.97c.19.49.4.82.65.98.24.16.49.19.73.1.18-.07.33-.18.46-.34.13-.16.25-.35.37-.57l.18.33c-.13.19-.28.39-.45.6-.17.21-.36.4-.56.58-.2.18-.42.34-.67.49-.25.15-.51.28-.78.38Z"/>
        <path d="M85.15,336.18c.89-.34,1.68-.55,2.37-.63.69-.08,1.31-.02,1.86.17s1.02.51,1.42.95c.4.44.73,1.02,1.01,1.73l2.2,5.73c.05.14.12.24.2.3.08.06.18.07.3.02.11-.04.23-.13.37-.26s.28-.3.42-.49l.08.21c-.13.21-.3.41-.53.63s-.47.41-.74.58c-.27.17-.55.32-.84.43-.85.33-1.61.37-2.28.15-.67-.23-1.2-.84-1.58-1.84l-.1-.27-.06-.15-.07-.17-.21-.06c-.04.64-.14,1.24-.3,1.8-.16.56-.38,1.06-.66,1.51-.27.45-.59.84-.96,1.16-.36.32-.76.57-1.2.73-.52.2-1.02.28-1.51.25s-.92-.18-1.3-.43c-.38-.25-.66-.62-.85-1.1-.44-1.15-.15-2.29.89-3.42,1.03-1.13,2.73-2.15,5.08-3.05-.45-1.18-.87-2.07-1.25-2.67-.38-.6-.8-.96-1.27-1.08s-1.05-.04-1.75.23c-.38.15-.71.31-.99.5-.27.18-.48.36-.61.52-.13.16-.19.28-.15.37.03.07.14.11.35.14.21.02.56.03,1.05,0,.99-.04,1.6.25,1.84.85.2.52.12,1.01-.24,1.46-.36.45-.89.81-1.59,1.08s-1.31.35-1.87.25c-.56-.1-.95-.41-1.15-.95-.14-.36-.12-.77.06-1.25.18-.48.48-.96.91-1.44.43-.49.95-.95,1.58-1.38.63-.44,1.31-.8,2.07-1.09ZM88.27,340.87c-.89.34-1.55.78-1.99,1.32s-.7,1.1-.78,1.68c-.08.58-.03,1.11.15,1.59.11.29.25.51.41.66.16.15.33.24.51.28.18.03.37.01.58-.07s.41-.22.61-.42c.2-.2.39-.47.55-.8.16-.33.29-.73.39-1.19.1-.46.14-1,.13-1.6l-.55-1.44Z"/>
        <path d="M116.68,333.15c-.23.91-.59,1.7-1.07,2.38-.48.68-1.04,1.26-1.68,1.73-.64.47-1.33.85-2.07,1.14-1.03.39-2.05.6-3.08.61-1.03,0-2-.18-2.91-.58-.91-.39-1.74-.98-2.47-1.77-.73-.79-1.33-1.77-1.79-2.97s-.68-2.3-.68-3.37c0-1.07.2-2.07.62-2.99s1.03-1.75,1.86-2.47c.82-.72,1.83-1.31,3.02-1.76.77-.29,1.53-.51,2.29-.63.76-.13,1.48-.19,2.15-.19.68,0,1.25.05,1.73.15l1.04,6.27-.39.15-2.11-2.66c-.62-.8-1.23-1.42-1.84-1.86-.6-.44-1.2-.72-1.8-.83s-1.2-.05-1.8.19c-.44.17-.78.49-1.01.96-.24.47-.37,1.03-.4,1.7-.03.66.03,1.39.18,2.17.14.78.38,1.59.69,2.41.35.9.79,1.73,1.33,2.47.54.74,1.17,1.35,1.88,1.83.72.48,1.52.76,2.39.86s1.82-.05,2.84-.44c.62-.24,1.17-.57,1.65-1s.87-.95,1.16-1.54l.26.06Z"/>
        <path d="M119.05,335.28l-.08-.21.96-.7-3.49-9.08-1.11.43-.09-.23,4.71-2.71,1.22,3.18.23.1c0-.5.01-.97.05-1.4.04-.43.11-.79.22-1.09.15-.56.38-1.02.7-1.38.32-.36.74-.64,1.26-.84.37-.14.76-.2,1.16-.19.41.02.78.13,1.13.34.35.21.61.56.8,1.04.15.38.18.76.11,1.14-.08.38-.25.71-.53,1.02-.28.3-.65.54-1.11.72-.42.16-.83.23-1.21.2-.38-.03-.71-.13-1-.32-.28-.19-.49-.45-.62-.8-.05-.14-.09-.27-.11-.4-.02-.13-.03-.24-.04-.35s-.03-.19-.05-.26c-.04-.1-.08-.13-.14-.11-.11.04-.2.2-.26.46-.06.27-.11.71-.14,1.32-.02.28-.03.6-.02.97.01.37.04.77.09,1.19l2.12,5.52,1.18-.12.08.21-6.04,2.32Z"/>
        <path d="M134.56,329.64c-1.01.39-1.89.39-2.63-.01-.74-.4-1.35-1.2-1.81-2.4l-2.42-6.28-1.11.43-.08-.21,4.71-2.71,3.02,7.84c.22.56.47.95.77,1.18.3.22.6.28.9.16.27-.11.5-.36.69-.76.18-.4.31-.9.39-1.5s.09-1.25.04-1.94l-2.04-5.3-1.11.43-.08-.21,4.71-2.71,3.8,9.88,1.11-.43.09.23-4.71,2.71-1.3-3.37-.23-.1c-.03,1.39-.26,2.5-.7,3.32-.44.82-1.11,1.41-2.01,1.75Z"/>
        <path d="M144.27,325.58l2.88-12.54-1.52.58c-1.01.39-1.75.91-2.22,1.56-.47.65-.62,1.45-.45,2.41l.32,1.81-.21.08-2.45-4.29,10.92-4.2-2.9,12.55,2.24-.86c.7-.27,1.22-.66,1.56-1.19.34-.52.46-1.19.37-2.01l-.18-1.89.21-.08,2.6,3.76-11.17,4.3Z"/>
      </g>
      <g class="cls-17">
        <path d="M272.22,429.93v-.22s1.72-.21,1.72-.21l.29-14.61-1.56-.32v-.22s5.94.12,5.94.12l4.89,11.85-.37-.45.77.02-.27.44,3.53-11.68,5.81.11v.22s-1.2.22-1.2.22l-.29,14.65,1.18.26v.22s-6.93-.14-6.93-.14v-.22s1.39-.21,1.39-.21l.25-12.65h-.33s-4.19,13.03-4.19,13.03l-2.48-.05-5.52-12.76h-.35s-.04,2.26-.04,2.26c-.01.63.02,1.35.1,2.17.08.82.21,1.65.38,2.52.17.86.41,1.68.71,2.46.3.78.67,1.44,1.1,1.99.44.55.95.92,1.53,1.11v.22s-6.08-.12-6.08-.12Z"/>
        <path d="M300.06,419.15c1,.02,1.88.18,2.65.48s1.41.73,1.92,1.27c.51.55.89,1.18,1.15,1.9s.38,1.52.36,2.38c-.02.78-.16,1.51-.44,2.19-.28.68-.68,1.29-1.22,1.81s-1.2.93-1.97,1.22c-.78.28-1.67.42-2.68.4s-1.97-.19-2.74-.5c-.77-.32-1.41-.75-1.92-1.29s-.88-1.16-1.12-1.86c-.24-.69-.35-1.43-.33-2.21.02-.87.17-1.65.48-2.37s.72-1.33,1.27-1.86,1.21-.92,1.98-1.19c.78-.27,1.65-.4,2.62-.38ZM300.06,419.39c-.48,0-.87.24-1.17.76-.3.52-.51,1.2-.66,2.06-.14.86-.22,1.8-.24,2.82-.01.7,0,1.39.05,2.06.05.67.14,1.26.28,1.78.14.52.34.93.58,1.23s.56.46.94.47c.35,0,.65-.13.9-.42.25-.29.45-.69.62-1.21.16-.52.29-1.11.38-1.76.09-.66.14-1.35.15-2.06.01-.76,0-1.49-.06-2.17-.05-.68-.14-1.29-.27-1.82-.13-.53-.32-.95-.56-1.25-.24-.3-.56-.46-.94-.47Z"/>
        <path d="M321.53,430.68v.22s-6.38-.12-6.38-.12v-.22s1.02-.2,1.02-.2l.15-7.63c.01-.62-.08-1.08-.27-1.4-.19-.32-.45-.48-.77-.49-.26,0-.53.13-.81.4-.28.27-.53.61-.77,1-.24.39-.44.78-.63,1.17-.18.39-.32.69-.41.91l-.12,5.98,1.01.24v.22s-6.34-.12-6.34-.12v-.22s1.15-.2,1.15-.2l.19-9.81-1.19-.02v-.24s5.39-.73,5.39-.73l-.07,3.59.17.18c.32-.71.69-1.35,1.11-1.91.41-.56.89-1,1.43-1.31.54-.31,1.16-.46,1.87-.45.65.01,1.18.12,1.6.33.42.21.75.49.98.84.24.36.4.77.5,1.23.1.46.15.97.14,1.51l-.14,7.04,1.18.24Z"/>
        <path d="M326.58,431.33c-1.14-.02-1.96-.35-2.43-.99s-.71-1.59-.68-2.85l.14-7.11-1.41-.03v-.22s1.42-.19,1.42-.19l3.85-3.53h.4s-.07,3.35-.07,3.35l2.1.53v.22s-2.12-.04-2.12-.04l-.17,8.53c-.01.53.07.91.23,1.15s.38.36.64.36c.19,0,.37-.04.55-.14.18-.1.36-.23.56-.38l.04.37c-.19.13-.41.26-.65.38-.24.13-.48.24-.73.33-.25.09-.52.16-.81.2-.29.05-.58.07-.87.06Z"/>
        <path d="M337.21,419.87c1.29.03,2.34.3,3.16.82.82.52,1.42,1.2,1.81,2.03s.57,1.73.55,2.69l-7.72-.15v-.22s3.86-.3,3.86-.3c.02-.98-.02-1.82-.11-2.5s-.26-1.21-.51-1.57-.61-.55-1.08-.56c-.43,0-.79.15-1.1.48-.31.33-.55.87-.71,1.63-.17.75-.27,1.75-.29,3-.01.59.05,1.18.19,1.78.13.6.34,1.14.62,1.64s.63.9,1.07,1.2c.43.3.95.46,1.55.47.34,0,.68-.04,1.04-.14.35-.1.69-.26,1.02-.46.33-.21.63-.45.91-.74s.51-.63.69-1.02l.26.22c-.38.74-.81,1.34-1.29,1.79s-.98.79-1.5,1.03c-.53.23-1.04.38-1.55.45-.51.07-.99.1-1.44.09-.97-.02-1.81-.2-2.54-.53s-1.33-.78-1.82-1.32c-.49-.54-.85-1.16-1.1-1.84s-.36-1.37-.34-2.08c.02-.92.19-1.75.52-2.49.33-.73.78-1.36,1.35-1.88.57-.52,1.23-.9,2-1.16s1.61-.38,2.52-.36Z"/>
        <path d="M343.85,431.34v-.22s1.15-.29,1.15-.29l.19-9.72-1.19-.02v-.24s5.39-.73,5.39-.73l-.07,3.41.17.18c.18-.47.38-.89.57-1.28s.4-.69.61-.92c.35-.46.73-.8,1.16-1.01.43-.21.92-.31,1.48-.3.4,0,.78.1,1.15.26s.68.42.92.74c.24.33.36.75.35,1.26,0,.41-.12.78-.33,1.09-.21.32-.5.57-.87.74-.37.18-.8.26-1.3.25-.45,0-.85-.1-1.19-.26-.34-.17-.61-.39-.8-.68s-.29-.61-.28-.97c0-.15.02-.28.05-.41s.06-.24.09-.34.05-.19.05-.26c0-.1-.03-.15-.08-.16-.12,0-.26.11-.41.33s-.37.61-.63,1.16c-.12.25-.25.55-.38.9-.13.35-.25.73-.36,1.14l-.12,5.92,1.14.33v.22s-6.47-.13-6.47-.13Z"/>
        <path d="M362.79,420.38c1.29.03,2.35.3,3.16.82.82.52,1.42,1.2,1.81,2.03.39.83.57,1.73.55,2.69l-7.72-.15v-.22s3.86-.3,3.86-.3c.02-.98-.02-1.82-.1-2.5-.09-.68-.26-1.21-.51-1.57-.25-.36-.61-.55-1.08-.56-.43,0-.79.15-1.1.48-.31.33-.54.87-.71,1.63-.17.75-.27,1.75-.29,3-.01.59.05,1.18.19,1.78.13.6.34,1.14.62,1.64s.63.9,1.07,1.2c.43.3.95.46,1.55.47.34,0,.68-.04,1.04-.14.35-.1.69-.26,1.02-.46s.63-.45.91-.74.51-.63.69-1.02l.26.22c-.38.74-.81,1.34-1.29,1.79-.48.45-.98.79-1.51,1.03s-1.04.38-1.55.45c-.51.07-.99.1-1.44.09-.97-.02-1.82-.2-2.54-.53s-1.33-.78-1.82-1.32c-.49-.54-.85-1.16-1.1-1.84-.24-.68-.36-1.37-.34-2.08.02-.92.19-1.75.52-2.49.33-.73.78-1.36,1.35-1.88.57-.52,1.24-.9,2-1.16s1.61-.38,2.52-.36Z"/>
        <path d="M372.4,436.63c-.63-.01-1.14-.12-1.53-.33-.39-.21-.68-.48-.88-.81-.19-.33-.28-.7-.28-1.09,0-.29.07-.55.2-.75.13-.21.3-.38.52-.52s.45-.24.71-.31c.26-.07.52-.1.78-.09.32,0,.63.07.91.18.28.11.51.28.68.49s.25.48.25.82c0,.22-.03.42-.07.59s-.1.34-.17.48c-.08.17-.14.32-.19.42-.05.11-.08.19-.08.25,0,.09.08.13.24.14.26,0,.54-.11.84-.35.3-.24.58-.59.86-1.05.2-.32.39-.71.6-1.18.2-.47.39-.98.58-1.55l-2.11-.04-4.17-10.64-1.21-.22v-.24s6.89.13,6.89.13v.24s-1.15.17-1.15.17l2.81,7.34h.33s.74-2.03.74-2.03c.11-.31.19-.63.25-.99.06-.35.09-.7.1-1.05,0-.32,0-.68-.05-1.08s-.12-.77-.24-1.13c-.12-.35-.31-.65-.56-.88-.24-.23-.57-.35-.96-.36v-.22s5.17.1,5.17.1v.22s-1.31.19-1.31.19l-4.17,10.48c-.31.79-.58,1.43-.82,1.94-.24.51-.42.87-.56,1.09-.33.49-.73.89-1.2,1.19-.47.3-1.05.44-1.76.43Z"/>
        <path d="M400.62,416.87c1.17.02,2.16.17,2.97.45.81.28,1.42.68,1.84,1.19.41.51.62,1.15.6,1.92-.01.69-.2,1.27-.56,1.74-.36.47-.82.85-1.39,1.13-.56.28-1.17.49-1.83.61-.65.13-1.28.19-1.86.19v.2c.76.03,1.5.12,2.24.28s1.39.39,1.99.7,1.07.72,1.42,1.23c.35.5.52,1.12.5,1.86s-.17,1.34-.45,1.87c-.29.53-.71.96-1.26,1.3s-1.23.57-2.04.72c-.81.15-1.74.21-2.78.19l-8.64-.17v-.22s1.2-.31,1.2-.31l.28-14.47-1.18-.35v-.22s8.96.18,8.96.18ZM399.6,417.2c-.59-.01-1.08-.01-1.47,0-.4,0-.7.03-.93.07l-.29,14.65c.36.11,1.12.18,2.26.2.57.01,1.1-.11,1.59-.36s.88-.68,1.18-1.29c.3-.6.46-1.42.48-2.47.02-1.26-.24-2.17-.79-2.73-.55-.56-1.41-.86-2.57-.9l-2.13-.09v-.24s2.14,0,2.14,0c.63,0,1.18-.13,1.64-.39.46-.26.82-.65,1.08-1.19.26-.54.4-1.24.42-2.1.02-.97-.2-1.73-.66-2.29s-1.11-.85-1.94-.86Z"/>
        <path d="M414.62,421.39c.95.02,1.77.12,2.44.31s1.22.48,1.66.86c.43.38.75.85.95,1.42.2.56.29,1.22.28,1.99l-.12,6.14c0,.15.02.27.07.35s.14.13.27.14c.12,0,.26-.03.44-.1.18-.07.37-.17.58-.3v.22c-.2.14-.44.27-.73.38s-.59.2-.91.26c-.32.06-.63.09-.94.08-.91-.02-1.63-.26-2.16-.73-.53-.46-.79-1.23-.77-2.3v-.29c0-.06,0-.11,0-.17v-.19s-.17-.14-.17-.14c-.28.58-.59,1.1-.95,1.55-.36.45-.75.84-1.18,1.15s-.87.55-1.32.71c-.46.16-.92.23-1.39.23-.56-.01-1.05-.12-1.49-.34-.44-.21-.78-.51-1.04-.89s-.38-.82-.37-1.34c.02-1.23.73-2.17,2.11-2.83,1.38-.66,3.34-.96,5.86-.91.02-1.26-.03-2.24-.15-2.94-.13-.7-.38-1.19-.77-1.48-.39-.29-.96-.44-1.71-.45-.41,0-.78.02-1.1.09s-.58.15-.76.25c-.19.1-.28.19-.28.28,0,.07.09.16.27.26.18.1.5.23.97.4.93.34,1.39.83,1.38,1.48-.01.56-.27.98-.77,1.26-.5.28-1.13.42-1.88.4s-1.34-.17-1.83-.48c-.49-.3-.72-.74-.71-1.31,0-.38.18-.76.53-1.13.34-.37.81-.71,1.38-1,.58-.29,1.24-.52,1.98-.69.74-.17,1.52-.24,2.33-.23ZM415.74,426.91c-.95-.02-1.73.14-2.34.47-.61.33-1.06.75-1.36,1.26-.3.51-.45,1.02-.46,1.53,0,.31.04.56.13.76.09.2.21.35.37.45s.34.15.56.15.46-.05.73-.16.54-.29.81-.53.55-.56.81-.95c.26-.39.5-.87.72-1.44l.03-1.54Z"/>
        <path d="M424.9,437.65c-.63-.01-1.14-.12-1.53-.33-.39-.21-.68-.48-.88-.81-.19-.33-.28-.7-.28-1.09,0-.29.07-.55.2-.75.13-.21.3-.38.52-.52s.45-.24.71-.31c.26-.07.52-.1.78-.09.32,0,.63.07.91.18.28.11.51.28.68.49s.25.48.25.82c0,.22-.03.42-.07.59s-.1.34-.17.48c-.08.17-.14.32-.19.42-.05.11-.08.19-.08.25,0,.09.08.13.24.14.26,0,.54-.11.84-.35.3-.24.58-.59.86-1.05.2-.32.39-.71.6-1.18.2-.47.39-.98.58-1.55l-2.11-.04-4.17-10.64-1.21-.22v-.24s6.89.13,6.89.13v.24s-1.15.17-1.15.17l2.81,7.34h.33s.74-2.03.74-2.03c.11-.31.19-.63.25-.99.06-.35.09-.7.1-1.05,0-.32,0-.68-.05-1.08s-.12-.77-.24-1.13c-.12-.35-.31-.65-.56-.88-.24-.23-.57-.35-.96-.36v-.22s5.17.1,5.17.1v.22s-1.31.19-1.31.19l-4.17,10.48c-.31.79-.58,1.43-.82,1.94-.24.51-.42.87-.56,1.09-.33.49-.73.89-1.2,1.19-.47.3-1.05.44-1.76.43Z"/>
      </g>
      <g>
        <g class="cls-31">
          <g class="cls-34">
            <g class="cls-20">
              <path class="cls-30" d="M245.8,388.58l7.64,26.25-.06.06-7.58-9.07-7.55,9.07-.06-.06,7.61-26.25ZM245.8,404.43v-12.98h-.06l-5.6,19.64.06.06,5.6-6.72ZM247.52,379.33h2.64v.36l-.92.18v6.81h-.59c-.71-.77-4.35-4.8-5.51-6.04v5.45l1.04.18v.36h-2.7v-.36l.95-.18v-6.22l-.95-.18v-.36h1.93l5.12,5.69v-5.15l-1.01-.18v-.36Z"/>
            </g>
          </g>
        </g>
        <g class="cls-31">
          <g class="cls-23">
            <g class="cls-21">
              <path class="cls-30" d="M245.8,388.58l7.64,26.25-.06.06-7.58-9.07-7.55,9.07-.06-.06,7.61-26.25ZM245.8,404.43v-12.98h-.06l-5.6,19.64.06.06,5.6-6.72ZM247.52,379.33h2.64v.36l-.92.18v6.81h-.59c-.71-.77-4.35-4.8-5.51-6.04v5.45l1.04.18v.36h-2.7v-.36l.95-.18v-6.22l-.95-.18v-.36h1.93l5.12,5.69v-5.15l-1.01-.18v-.36Z"/>
            </g>
          </g>
        </g>
        <g class="cls-31">
          <g class="cls-22">
            <g class="cls-24">
              <path class="cls-30" d="M245.8,388.58l7.64,26.25-.06.06-7.58-9.07-7.55,9.07-.06-.06,7.61-26.25ZM245.8,404.43v-12.98h-.06l-5.6,19.64.06.06,5.6-6.72ZM247.52,379.33h2.64v.36l-.92.18v6.81h-.59c-.71-.77-4.35-4.8-5.51-6.04v5.45l1.04.18v.36h-2.7v-.36l.95-.18v-6.22l-.95-.18v-.36h1.93l5.12,5.69v-5.15l-1.01-.18v-.36Z"/>
            </g>
          </g>
        </g>
      </g>
      <polygon class="cls-26" points="141.28 377.29 197.55 421.68 209.55 443.56 214.5 444.27 204.61 422.38 200.37 416.73 146.71 373.66 141.28 377.29"/>
      <text class="cls-14" transform="translate(149.33 407.61)"><tspan x="0" y="0">The Wharf</tspan></text>
    </g>
  </g>
</svg>